<svg width="62" height="58" viewBox="0 0 62 58" fill="none" xmlns="http://www.w3.org/2000/svg">
<path d="M0.142578 8.4143C0.142578 3.99603 3.7243 0.414307 8.14258 0.414307H42.0997C52.6326 0.414307 61.1712 8.95287 61.1712 19.4857C61.1712 23.6989 57.7557 27.1143 53.5426 27.1143H8.14258C3.7243 27.1143 0.142578 23.5326 0.142578 19.1143V8.4143Z" fill="#957BB4"/>
<path d="M0.142578 37.6491C0.142578 33.2353 3.72065 29.6572 8.13442 29.6572H53.1712C57.5894 29.6572 61.1712 33.2389 61.1712 37.6572V49.6287C61.1712 54.0469 57.5894 57.6287 53.1712 57.6287H20.1222C9.08775 57.6287 0.142578 48.6835 0.142578 37.6491Z" fill="#957BB4"/>
</svg>
