<svg width="64" height="62" viewBox="0 0 64 62" fill="none" xmlns="http://www.w3.org/2000/svg">
<path d="M0.342773 8.41431C0.342773 3.99603 3.92449 0.414307 8.34277 0.414307H14.1428C16.3519 0.414307 18.1428 2.20517 18.1428 4.41431V10.2143C18.1428 14.6326 14.5611 18.2143 10.1428 18.2143H4.34278C2.13364 18.2143 0.342773 16.4234 0.342773 14.2143V8.41431Z" fill="#957BB4"/>
<path d="M46.1143 8.41431C46.1143 3.99603 49.696 0.414307 54.1143 0.414307H55.9143C60.3325 0.414307 63.9143 3.99603 63.9143 8.41431V14.2143C63.9143 16.4234 62.1234 18.2143 59.9143 18.2143H54.1143C49.696 18.2143 46.1143 14.6326 46.1143 10.2143V8.41431Z" fill="#957BB4"/>
<path d="M0.342773 9.31445H18.1428V37.1002C18.1428 39.3093 16.3519 41.1002 14.1428 41.1002H4.34278C2.13364 41.1002 0.342773 39.3093 0.342773 37.1002V9.31445Z" fill="#957BB4"/>
<path d="M46.1143 24.7571C46.1143 22.5479 47.9051 20.7571 50.1143 20.7571H59.9143C62.1234 20.7571 63.9143 22.5479 63.9143 24.7571V52.5428H46.1143V24.7571Z" fill="#957BB4"/>
<path d="M0.342773 51.6428C0.342773 47.2245 3.92449 43.6428 8.34277 43.6428H14.1428C16.3519 43.6428 18.1428 45.4337 18.1428 47.6428V53.4428C18.1428 57.8611 14.5611 61.4428 10.1428 61.4428H8.34278C3.9245 61.4428 0.342773 57.8611 0.342773 53.4428V51.6428Z" fill="#BED730"/>
<path d="M46.1143 47.6428C46.1143 45.4337 47.9051 43.6428 50.1143 43.6428H55.9143C60.3325 43.6428 63.9143 47.2245 63.9143 51.6428V53.4428C63.9143 57.8611 60.3325 61.4428 55.9143 61.4428H50.1143C47.9051 61.4428 46.1143 59.652 46.1143 57.4428V47.6428Z" fill="#957BB4"/>
<rect x="20.6855" y="0.414307" width="22.8857" height="61.0286" rx="8" fill="#957BB4"/>
</svg>
