<svg width="68" height="69" viewBox="0 0 68 69" fill="none" xmlns="http://www.w3.org/2000/svg">
<path d="M0.200195 8.14282C0.200195 3.72454 3.78192 0.142822 8.2002 0.142822H26.5288C30.947 0.142822 34.5288 3.72454 34.5288 8.14282V64.065C34.5288 66.68 32.4088 68.8 29.7938 68.8C13.4497 68.8 0.200195 55.5505 0.200195 39.2064V8.14282Z" fill="#957BB4"/>
<path d="M67.5855 24.3001C67.5855 37.6418 56.7699 48.4573 43.4283 48.4573L41.28 48.4573C38.9555 48.4573 37.0712 46.5729 37.0712 44.2484L37.0712 4.35185C37.0712 2.02736 38.9555 0.142991 41.28 0.142992L43.4283 0.142992C56.7699 0.142993 67.5855 10.9585 67.5855 24.3001Z" fill="#BED730"/>
</svg>
