<svg width="62" height="62" viewBox="0 0 62 62" fill="none" xmlns="http://www.w3.org/2000/svg">
<rect x="29.3857" y="0.142822" width="29.2429" height="29.2429" rx="14.6214" transform="rotate(90 29.3857 0.142822)" fill="#957BB4"/>
<rect x="61.1714" y="31.9285" width="29.2429" height="29.2429" rx="14.6214" transform="rotate(90 61.1714 31.9285)" fill="#957BB4"/>
<path d="M20.1426 61.1714C9.09688 61.1714 0.142578 52.2171 0.142578 41.1714L0.142578 37.9285C0.142578 34.6148 2.82887 31.9285 6.14258 31.9285L23.3854 31.9285C26.6991 31.9285 29.3854 34.6148 29.3854 37.9285L29.3854 55.1714C29.3854 58.4851 26.6991 61.1714 23.3854 61.1714L20.1426 61.1714Z" fill="#957BB4"/>
<path d="M41.1714 0.142821C52.2171 0.142822 61.1714 9.09713 61.1714 20.1428L61.1714 23.3857C61.1714 26.6994 58.4851 29.3857 55.1714 29.3857L37.9285 29.3857C34.6148 29.3857 31.9285 26.6994 31.9285 23.3857L31.9285 6.14282C31.9285 2.82911 34.6148 0.142821 37.9285 0.142821L41.1714 0.142821Z" fill="#BED730"/>
</svg>
